<?xml version="1.0" encoding="UTF-8" standalone="no"?>
<!DOCTYPE svg PUBLIC "-//W3C//DTD SVG 1.1//EN" "http://www.w3.org/Graphics/SVG/1.1/DTD/svg11.dtd">
<svg xmlns="http://www.w3.org/2000/svg" version="1.1" viewBox="0.00 0.00 206.00 206.00">
<g stroke-width="2.00" fill="none" stroke-linecap="butt">
<path stroke="#e25e02" vector-effect="non-scaling-stroke" d="
  M 117.88 32.21
  L 111.93 36.54"
/>
<path stroke="#e25e02" vector-effect="non-scaling-stroke" d="
  M 97.49 36.94
  L 90.89 32.99"
/>
<path stroke="#faa979" vector-effect="non-scaling-stroke" d="
  M 100.31 168.21
  L 103.62 183.74"
/>
<path stroke="#feb979" vector-effect="non-scaling-stroke" d="
  M 48.50 131.91
  L 52.81 131.73"
/>
<path stroke="#feb979" vector-effect="non-scaling-stroke" d="
  M 51.93 128.70
  L 47.27 128.54"
/>
<path stroke="#feb979" vector-effect="non-scaling-stroke" d="
  M 45.34 83.78
  C 47.79 71.81 50.96 62.46 59.60 52.74"
/>
<path stroke="#feb979" vector-effect="non-scaling-stroke" d="
  M 54.77 47.66
  Q 44.09 60.55 40.56 76.78
  Q 39.78 80.38 39.06 83.94"
/>
<path stroke="#cbd6da" vector-effect="non-scaling-stroke" d="
  M 34.66 82.49
  L 35.13 77.24"
/>
<path stroke="#cbd6da" vector-effect="non-scaling-stroke" d="
  M 32.68 82.50
  Q 32.79 79.84 31.01 78.66"
/>
<path stroke="#feb379" vector-effect="non-scaling-stroke" d="
  M 149.65 52.25
  Q 149.63 53.01 149.89 53.30
  C 157.64 61.72 161.87 72.55 163.72 83.68"
/>
<path stroke="#e29578" vector-effect="non-scaling-stroke" d="
  M 105.54 182.57
  L 108.51 168.47"
/>
<path stroke="#cbd6da" vector-effect="non-scaling-stroke" d="
  M 173.97 77.30
  L 174.32 83.42"
/>
<path stroke="#feb379" vector-effect="non-scaling-stroke" d="
  M 169.67 83.94
  C 169.08 81.10 168.85 77.88 168.29 75.37
  Q 164.80 59.93 154.44 47.75"
/>
<path stroke="#cbd6da" vector-effect="non-scaling-stroke" d="
  M 177.76 78.77
  Q 176.21 80.21 176.77 82.53"
/>
<path stroke="#feb379" vector-effect="non-scaling-stroke" d="
  M 146.75 80.12
  Q 142.07 76.73 135.82 74.57"
/>
<path stroke="#feb379" vector-effect="non-scaling-stroke" d="
  M 133.71 73.54
  L 123.99 69.43"
/>
<path stroke="#feb379" vector-effect="non-scaling-stroke" d="
  M 121.68 68.13
  L 117.17 66.29"
/>
<path stroke="#faa979" vector-effect="non-scaling-stroke" d="
  M 115.67 63.92
  L 114.53 59.99"
/>
<path stroke="#e29578" vector-effect="non-scaling-stroke" d="
  M 114.16 57.32
  Q 114.35 55.30 113.92 55.22"
/>
<path stroke="#ffdb7c" vector-effect="non-scaling-stroke" d="
  M 113.92 55.22
  C 111.99 50.70 97.56 50.80 95.49 54.84"
/>
<path stroke="#e29578" vector-effect="non-scaling-stroke" d="
  M 95.49 54.84
  Q 94.71 56.36 95.13 57.57"
/>
<path stroke="#feb979" vector-effect="non-scaling-stroke" d="
  M 94.59 59.95
  L 93.28 64.18"
/>
<path stroke="#feb979" vector-effect="non-scaling-stroke" d="
  M 90.70 66.50
  L 83.85 69.64"
/>
<path stroke="#feb979" vector-effect="non-scaling-stroke" d="
  M 76.62 72.98
  L 73.97 74.10"
/>
<path stroke="#feb979" vector-effect="non-scaling-stroke" d="
  M 64.00 79.32
  L 62.15 80.47"
/>
<path stroke="#e27104" vector-effect="non-scaling-stroke" d="
  M 113.92 55.22
  Q 107.95 57.92 99.52 56.90
  Q 96.93 56.59 95.49 54.84"
/>
<path stroke="#f96302" vector-effect="non-scaling-stroke" d="
  M 104.39 148.44
  Q 103.46 152.30 104.01 156.87"
/>
<path stroke="#faa979" vector-effect="non-scaling-stroke" d="
  M 132.36 108.88
  L 129.99 114.96"
/>
<path stroke="#faa979" vector-effect="non-scaling-stroke" d="
  M 128.74 118.92
  L 127.96 122.10"
/>
<path stroke="#a73707" vector-effect="non-scaling-stroke" d="
  M 107.76 133.30
  L 107.65 135.71"
/>
<path stroke="#faa979" vector-effect="non-scaling-stroke" d="
  M 126.92 129.07
  L 126.91 125.90"
/>
<path stroke="#a73707" vector-effect="non-scaling-stroke" d="
  M 109.00 135.97
  L 108.84 133.31"
/>
<path stroke="#ac8d7f" vector-effect="non-scaling-stroke" d="
  M 141.22 100.96
  Q 139.47 101.28 137.73 100.96"
/>
<path stroke="#a73707" vector-effect="non-scaling-stroke" d="
  M 141.62 98.40
  Q 140.51 99.46 138.50 99.16
  A 1.07 1.06 -64.8 0 0 137.56 99.50
  Q 136.54 100.66 137.73 100.96"
/>
<path stroke="#faa979" vector-effect="non-scaling-stroke" d="
  M 137.73 100.96
  C 135.46 100.85 134.80 103.39 133.99 104.96"
/>
<path stroke="#feb379" vector-effect="non-scaling-stroke" d="
  M 79.26 115.01
  L 78.37 112.24"
/>
<path stroke="#ab4708" vector-effect="non-scaling-stroke" d="
  M 123.08 133.04
  Q 123.94 135.27 122.31 136.02"
/>
<path stroke="#fa8504" vector-effect="non-scaling-stroke" d="
  M 134.16 151.29
  Q 133.88 151.23 133.52 150.71"
/>
<path stroke="#feb979" vector-effect="non-scaling-stroke" d="
  M 163.12 160.99
  Q 162.63 159.66 161.12 159.16"
/>
<path stroke="#faa979" vector-effect="non-scaling-stroke" d="
  M 162.28 166.00
  Q 161.76 166.91 160.75 167.48"
/>
<path stroke="#ffc97a" vector-effect="non-scaling-stroke" d="
  M 99.43 24.31
  L 109.57 24.39
  A 0.86 0.86 0.0 0 0 110.43 23.54
  L 110.43 23.37
  A 5.20 4.47 0.5 0 0 105.27 18.86
  L 103.81 18.84
  A 5.20 4.47 0.5 0 0 98.58 23.27
  L 98.57 23.44
  A 0.86 0.86 0.0 0 0 99.43 24.31"
/>
<path stroke="#a73707" vector-effect="non-scaling-stroke" d="
  M 108.1630 119.9900
  A 1.74 0.50 89.9 0 0 108.6600 118.2491
  A 1.74 0.50 89.9 0 0 108.1570 116.5100
  A 1.74 0.50 89.9 0 0 107.6600 118.2509
  A 1.74 0.50 89.9 0 0 108.1630 119.9900"
/>
<path stroke="#feb379" vector-effect="non-scaling-stroke" d="
  M 170.20 122.49
  Q 170.65 123.08 171.57 122.92
  Q 171.87 122.87 171.88 122.57
  Q 171.88 122.40 171.87 122.21
  Q 171.86 121.90 171.54 121.89
  Q 171.11 121.87 170.70 121.65"
/>
<path stroke="#fe8f04" vector-effect="non-scaling-stroke" d="
  M 170.70 121.65
  L 171.35 120.88
  Q 171.67 120.51 171.29 120.20
  Q 170.90 119.89 170.55 120.29
  Q 169.87 121.08 170.20 122.49"
/>
<path stroke="#ffdb7c" vector-effect="non-scaling-stroke" d="
  M 170.70 121.65
  Q 170.55 121.59 170.38 121.67
  Q 170.25 121.74 170.20 121.90
  Q 170.13 122.17 170.20 122.49"
/>
</g>
<path fill="#fe9203" d="
  M 117.88 32.21
  L 111.93 36.54
  C 111.03 33.66 114.88 31.92 117.12 29.86
  Q 117.49 29.51 117.10 29.18
  Q 114.25 26.71 110.75 25.30
  Q 110.12 25.04 110.40 25.66
  C 112.39 29.99 110.86 34.59 106.19 35.94
  C 100.23 37.67 95.43 31.28 98.44 25.99
  Q 98.93 25.12 98.00 25.47
  Q 94.46 26.81 91.48 29.17
  A 0.51 0.51 0.0 0 0 91.54 30.02
  Q 96.49 32.87 97.49 36.94
  L 90.89 32.99
  Q 90.43 31.31 88.40 29.79
  Q 87.97 29.47 88.35 29.10
  C 89.57 27.94 90.38 27.29 91.05 25.63
  C 94.05 18.19 102.39 14.36 109.95 17.56
  Q 115.76 20.01 117.65 25.33
  C 118.59 27.94 119.31 27.60 120.68 29.30
  Q 120.98 29.66 120.57 29.89
  Q 118.80 30.86 117.88 32.21
  Z
  M 99.43 24.31
  L 109.57 24.39
  A 0.86 0.86 0.0 0 0 110.43 23.54
  L 110.43 23.37
  A 5.20 4.47 0.5 0 0 105.27 18.86
  L 103.81 18.84
  A 5.20 4.47 0.5 0 0 98.58 23.27
  L 98.57 23.44
  A 0.86 0.86 0.0 0 0 99.43 24.31
  Z"
/>
<path fill="#fffff0" d="
  M 99.43 24.31
  A 0.86 0.86 0.0 0 1 98.57 23.44
  L 98.58 23.27
  A 5.20 4.47 0.5 0 1 103.81 18.84
  L 105.27 18.86
  A 5.20 4.47 0.5 0 1 110.43 23.37
  L 110.43 23.54
  A 0.86 0.86 0.0 0 1 109.57 24.39
  L 99.43 24.31
  Z"
/>
<path fill="#fffff0" d="
  M 128.60 24.51
  C 136.32 27.00 145.76 31.94 151.77 38.14
  Q 152.18 38.56 151.83 39.03
  L 149.87 41.62
  A 1.37 1.37 0.0 0 1 147.89 41.84
  Q 138.71 34.07 127.29 30.26
  Q 125.28 29.59 125.70 27.52
  L 126.01 26.03
  Q 126.46 23.82 128.60 24.51
  Z"
/>
<path fill="#fffff0" d="
  M 74.68 26.92
  Q 78.69 25.10 80.73 24.64
  Q 82.79 24.18 82.93 26.29
  L 83.04 27.89
  Q 83.16 29.72 81.44 30.35
  Q 70.28 34.47 61.12 42.02
  A 1.16 1.15 -39.0 0 1 59.48 41.85
  L 57.49 39.36
  Q 56.87 38.58 57.61 37.90
  Q 64.55 31.52 74.68 26.92
  Z"
/>
<path fill="#fd7302" d="
  M 40.00 32.50
  Q 38.84 31.51 39.11 33.01
  L 40.26 39.23
  Q 40.53 40.70 41.92 41.24
  Q 43.41 41.82 43.06 44.77
  Q 42.89 46.21 41.48 46.73
  C 36.97 48.42 33.96 43.43 38.11 40.69
  Q 38.50 40.44 38.43 39.97
  Q 37.88 36.28 37.10 32.66
  C 36.81 31.32 36.37 30.98 35.51 30.00
  Q 35.18 29.63 35.38 29.17
  C 36.80 25.96 38.94 27.82 40.90 27.81
  Q 44.58 27.79 48.24 27.77
  A 0.72 0.70 7.8 0 0 48.91 27.28
  C 50.13 23.44 55.89 24.45 55.92 28.59
  C 55.93 31.72 51.19 33.50 49.17 30.18
  Q 48.89 29.71 48.34 29.71
  L 40.75 29.64
  Q 39.95 29.64 40.54 30.17
  L 48.15 37.01
  Q 48.54 37.36 49.06 37.45
  Q 49.76 37.57 50.39 38.04
  A 1.07 1.06 -42.5 0 1 50.31 39.81
  Q 48.05 41.18 47.15 38.94
  Q 46.94 38.42 46.52 38.06
  L 40.00 32.50
  Z
  M 54.06 28.43
  A 1.70 1.70 0.0 0 0 52.36 26.73
  A 1.70 1.70 0.0 0 0 50.66 28.43
  A 1.70 1.70 0.0 0 0 52.36 30.13
  A 1.70 1.70 0.0 0 0 54.06 28.43
  Z
  M 41.33 43.69
  A 1.67 1.67 0.0 0 0 39.66 42.02
  A 1.67 1.67 0.0 0 0 37.99 43.69
  A 1.67 1.67 0.0 0 0 39.66 45.36
  A 1.67 1.67 0.0 0 0 41.33 43.69
  Z"
/>
<path fill="#fd7302" d="
  M 164.00 37.46
  Q 162.07 38.75 159.42 40.42
  Q 159.21 40.55 159.09 40.49
  Q 158.99 40.43 158.92 40.28
  Q 158.87 40.17 158.95 40.08
  L 162.96 35.34
  Q 163.35 34.88 162.84 34.56
  L 155.50 29.96
  Q 152.57 28.12 155.95 28.82
  L 165.10 30.72
  Q 165.76 30.86 166.23 30.37
  L 168.80 27.67
  A 2.26 2.26 0.0 0 1 171.90 27.50
  L 172.78 28.24
  A 2.05 2.05 0.0 0 1 172.81 31.35
  L 169.20 34.54
  A 0.89 0.88 -26.4 0 0 168.91 35.38
  L 170.94 45.56
  Q 171.05 46.12 170.48 46.17
  Q 169.89 46.23 169.59 45.64
  Q 167.94 42.42 165.74 37.93
  Q 165.14 36.71 164.00 37.46
  Z
  M 170.5606 29.2429
  A 0.48 0.48 0.0 0 0 169.8832 29.1980
  L 167.3702 31.3980
  A 0.48 0.48 0.0 0 0 167.3252 32.0753
  L 167.7994 32.6171
  A 0.48 0.48 0.0 0 0 168.4768 32.6620
  L 170.9898 30.4620
  A 0.48 0.48 0.0 0 0 171.0348 29.7847
  L 170.5606 29.2429
  Z"
/>
<path fill="#c52a00" d="
  M 117.88 32.21
  C 115.53 47.30 94.65 47.30 90.89 32.99
  L 97.49 36.94
  Q 101.39 39.82 106.75 39.00
  Q 109.25 38.61 111.93 36.54
  L 117.88 32.21
  Z"
/>
<path fill="#fffff0" d="
  M 100.31 168.21
  L 103.62 183.74
  L 103.71 191.38
  Q 103.73 193.53 102.78 191.60
  C 100.39 186.73 98.06 180.44 96.38 176.47
  Q 92.58 167.51 87.81 155.45
  Q 87.03 153.50 84.80 153.78
  A 0.55 0.55 0.0 0 1 84.18 153.24
  Q 84.15 151.40 82.41 150.44
  A 2.30 2.30 0.0 0 0 79.03 152.13
  Q 78.63 154.95 81.41 155.75
  A 0.21 0.20 -58.2 0 1 81.49 156.10
  L 78.81 158.60
  Q 78.61 158.78 78.36 158.68
  Q 58.97 150.26 48.50 131.91
  L 52.81 131.73
  Q 53.60 132.50 54.67 133.00
  Q 55.15 133.22 55.54 132.87
  L 57.16 131.41
  A 2.55 2.55 0.0 0 0 56.74 127.30
  Q 53.60 125.48 51.93 128.70
  L 47.27 128.54
  L 46.45 125.32
  Q 46.33 124.84 46.75 124.59
  Q 49.42 123.03 50.50 120.26
  C 51.56 117.57 49.31 112.79 48.60 109.93
  Q 48.47 109.40 47.93 109.53
  C 46.44 109.92 44.99 110.77 43.62 110.94
  C 30.05 112.63 24.64 94.04 37.30 88.67
  C 39.54 87.72 41.93 87.98 44.41 88.00
  Q 44.92 88.01 44.97 87.50
  L 45.34 83.78
  C 47.79 71.81 50.96 62.46 59.60 52.74
  Q 69.98 40.99 84.92 36.24
  Q 85.42 36.08 85.64 36.55
  C 87.58 40.83 88.58 44.18 93.07 46.47
  Q 93.35 46.61 93.05 46.70
  C 73.62 52.89 58.44 67.35 54.68 87.44
  C 49.30 116.19 66.77 141.68 94.75 148.31
  Q 96.16 148.65 97.12 150.19
  C 98.48 152.40 97.80 160.15 97.78 163.00
  Q 97.76 166.13 100.31 168.21
  Z
  M 83.14 44.09
  A 1.54 1.54 0.0 0 0 81.60 42.55
  A 1.54 1.54 0.0 0 0 80.06 44.09
  A 1.54 1.54 0.0 0 0 81.60 45.63
  A 1.54 1.54 0.0 0 0 83.14 44.09
  Z
  M 76.28 47.60
  A 1.57 1.57 0.0 0 0 74.71 46.03
  A 1.57 1.57 0.0 0 0 73.14 47.60
  A 1.57 1.57 0.0 0 0 74.71 49.17
  A 1.57 1.57 0.0 0 0 76.28 47.60
  Z
  M 70.01 52.63
  A 1.60 1.60 0.0 0 0 68.41 51.03
  A 1.60 1.60 0.0 0 0 66.81 52.63
  A 1.60 1.60 0.0 0 0 68.41 54.23
  A 1.60 1.60 0.0 0 0 70.01 52.63
  Z
  M 62.1315 60.0381
  A 1.63 1.50 112.3 0 0 64.1378 59.0992
  A 1.63 1.50 112.3 0 0 63.3685 57.0219
  A 1.63 1.50 112.3 0 0 61.3622 57.9608
  A 1.63 1.50 112.3 0 0 62.1315 60.0381
  Z
  M 60.12 63.59
  A 1.61 1.61 0.0 0 0 58.51 61.98
  A 1.61 1.61 0.0 0 0 56.90 63.59
  A 1.61 1.61 0.0 0 0 58.51 65.20
  A 1.61 1.61 0.0 0 0 60.12 63.59
  Z
  M 55.1911 70.8777
  A 1.65 1.42 83.0 0 0 56.3994 69.0669
  A 1.65 1.42 83.0 0 0 54.7889 67.6023
  A 1.65 1.42 83.0 0 0 53.5806 69.4131
  A 1.65 1.42 83.0 0 0 55.1911 70.8777
  Z
  M 53.36 77.64
  A 1.56 1.56 0.0 0 0 51.80 76.08
  A 1.56 1.56 0.0 0 0 50.24 77.64
  A 1.56 1.56 0.0 0 0 51.80 79.20
  A 1.56 1.56 0.0 0 0 53.36 77.64
  Z
  M 51.03 88.76
  A 1.45 1.45 0.0 0 0 49.58 87.31
  A 1.45 1.45 0.0 0 0 48.13 88.76
  A 1.45 1.45 0.0 0 0 49.58 90.21
  A 1.45 1.45 0.0 0 0 51.03 88.76
  Z
  M 47.35 99.43
  A 5.64 5.64 0.0 0 0 41.71 93.79
  A 5.64 5.64 0.0 0 0 36.07 99.43
  A 5.64 5.64 0.0 0 0 41.71 105.07
  A 5.64 5.64 0.0 0 0 47.35 99.43
  Z
  M 63.33 136.66
  A 2.46 2.46 0.0 0 0 60.87 134.20
  A 2.46 2.46 0.0 0 0 58.41 136.66
  A 2.46 2.46 0.0 0 0 60.87 139.12
  A 2.46 2.46 0.0 0 0 63.33 136.66
  Z
  M 69.64 142.82
  A 2.54 2.54 0.0 0 0 67.10 140.28
  A 2.54 2.54 0.0 0 0 64.56 142.82
  A 2.54 2.54 0.0 0 0 67.10 145.36
  A 2.54 2.54 0.0 0 0 69.64 142.82
  Z
  M 76.59 147.90
  A 2.35 2.35 0.0 0 0 74.24 145.55
  A 2.35 2.35 0.0 0 0 71.89 147.90
  A 2.35 2.35 0.0 0 0 74.24 150.25
  A 2.35 2.35 0.0 0 0 76.59 147.90
  Z"
/>
<path fill="#fffff0" d="
  M 149.65 52.25
  Q 149.63 53.01 149.89 53.30
  C 157.64 61.72 161.87 72.55 163.72 83.68
  L 164.04 87.48
  Q 164.09 87.98 164.59 87.99
  C 166.83 88.03 168.95 87.71 171.05 88.49
  C 185.60 93.85 177.51 116.73 161.52 109.67
  A 0.93 0.92 17.6 0 0 160.24 110.33
  C 156.65 127.08 146.23 140.43 131.40 148.76
  C 128.87 150.19 125.71 151.24 122.82 152.44
  Q 122.34 152.64 122.15 153.12
  Q 120.36 157.58 118.63 162.01
  Q 113.89 174.14 108.45 185.97
  C 107.73 187.54 107.21 190.99 105.67 192.35
  Q 105.32 192.66 105.33 192.20
  L 105.54 182.57
  L 108.51 168.47
  Q 112.30 162.36 111.11 151.98
  Q 111.06 151.47 111.29 151.02
  Q 112.57 148.59 114.23 148.22
  C 133.69 143.85 148.46 130.32 153.62 111.14
  C 156.29 101.20 155.93 89.18 152.20 79.54
  Q 144.11 58.60 122.97 49.19
  Q 119.66 47.72 116.46 46.95
  Q 115.26 46.67 116.36 46.11
  C 120.55 43.97 121.50 40.58 123.38 36.57
  Q 123.58 36.14 124.04 36.29
  Q 126.90 37.23 129.70 38.27
  C 137.09 41.04 143.89 46.50 149.24 52.23
  Q 149.44 52.46 149.65 52.25
  Z
  M 128.92 44.02
  A 1.53 1.53 0.0 0 0 127.39 42.49
  A 1.53 1.53 0.0 0 0 125.86 44.02
  A 1.53 1.53 0.0 0 0 127.39 45.55
  A 1.53 1.53 0.0 0 0 128.92 44.02
  Z
  M 135.88 47.61
  A 1.56 1.56 0.0 0 0 134.32 46.05
  A 1.56 1.56 0.0 0 0 132.76 47.61
  A 1.56 1.56 0.0 0 0 134.32 49.17
  A 1.56 1.56 0.0 0 0 135.88 47.61
  Z
  M 142.26 52.61
  A 1.58 1.58 0.0 0 0 140.68 51.03
  A 1.58 1.58 0.0 0 0 139.10 52.61
  A 1.58 1.58 0.0 0 0 140.68 54.19
  A 1.58 1.58 0.0 0 0 142.26 52.61
  Z
  M 147.89 58.54
  A 1.60 1.60 0.0 0 0 146.29 56.94
  A 1.60 1.60 0.0 0 0 144.69 58.54
  A 1.60 1.60 0.0 0 0 146.29 60.14
  A 1.60 1.60 0.0 0 0 147.89 58.54
  Z
  M 152.09 63.58
  A 1.52 1.52 0.0 0 0 150.57 62.06
  A 1.52 1.52 0.0 0 0 149.05 63.58
  A 1.52 1.52 0.0 0 0 150.57 65.10
  A 1.52 1.52 0.0 0 0 152.09 63.58
  Z
  M 155.68 69.24
  A 1.56 1.56 0.0 0 0 154.12 67.68
  A 1.56 1.56 0.0 0 0 152.56 69.24
  A 1.56 1.56 0.0 0 0 154.12 70.80
  A 1.56 1.56 0.0 0 0 155.68 69.24
  Z
  M 158.90 77.68
  A 1.57 1.57 0.0 0 0 157.33 76.11
  A 1.57 1.57 0.0 0 0 155.76 77.68
  A 1.57 1.57 0.0 0 0 157.33 79.25
  A 1.57 1.57 0.0 0 0 158.90 77.68
  Z
  M 160.49 88.79
  A 1.33 1.33 0.0 0 0 159.16 87.46
  A 1.33 1.33 0.0 0 0 157.83 88.79
  A 1.33 1.33 0.0 0 0 159.16 90.12
  A 1.33 1.33 0.0 0 0 160.49 88.79
  Z
  M 172.96 99.42
  A 5.64 5.64 0.0 0 0 167.32 93.78
  A 5.64 5.64 0.0 0 0 161.68 99.42
  A 5.64 5.64 0.0 0 0 167.32 105.06
  A 5.64 5.64 0.0 0 0 172.96 99.42
  Z"
/>
<path fill="#fffff0" d="
  M 54.77 47.66
  Q 44.09 60.55 40.56 76.78
  Q 39.78 80.38 39.06 83.94
  Q 34.39 85.75 34.66 82.49
  L 35.13 77.24
  C 38.02 64.56 42.06 54.64 50.33 44.69
  Q 50.68 44.27 51.09 44.62
  L 54.77 47.66
  Z"
/>
<path fill="#fffff0" d="
  M 173.97 77.30
  L 174.32 83.42
  Q 173.61 85.30 169.67 83.94
  C 169.08 81.10 168.85 77.88 168.29 75.37
  Q 164.80 59.93 154.44 47.75
  L 158.05 44.71
  Q 158.40 44.41 158.70 44.76
  C 160.54 46.98 162.60 49.05 164.04 51.41
  Q 171.39 63.38 173.97 77.30
  Z"
/>
<path fill="#fd7302" d="
  M 54.77 47.66
  L 59.60 52.74
  C 50.96 62.46 47.79 71.81 45.34 83.78
  L 39.06 83.94
  Q 39.78 80.38 40.56 76.78
  Q 44.09 60.55 54.77 47.66
  Z"
/>
<path fill="#fffff0" d="
  M 146.75 80.12
  Q 142.07 76.73 135.82 74.57
  L 133.71 73.54
  L 123.99 69.43
  Q 123.05 68.44 121.68 68.13
  L 117.17 66.29
  Q 116.07 65.50 115.67 63.92
  L 114.53 59.99
  Q 114.60 58.71 114.16 57.32
  Q 114.35 55.30 113.92 55.22
  C 111.99 50.70 97.56 50.80 95.49 54.84
  Q 94.71 56.36 95.13 57.57
  Q 94.37 59.16 94.59 59.95
  L 93.28 64.18
  Q 92.58 65.70 90.70 66.50
  L 83.85 69.64
  L 76.62 72.98
  L 73.97 74.10
  Q 68.90 75.82 64.00 79.32
  L 62.15 80.47
  C 59.37 76.44 62.90 74.89 65.76 73.25
  Q 66.15 73.02 66.61 73.02
  C 69.44 72.97 72.82 67.08 73.92 65.93
  Q 78.77 60.83 87.52 56.51
  C 88.49 56.03 90.64 56.21 90.98 54.42
  C 92.37 47.09 103.70 47.75 108.96 48.02
  C 113.07 48.24 117.23 50.59 118.04 55.08
  Q 118.13 55.59 118.64 55.68
  C 126.72 57.19 135.61 65.74 140.26 72.17
  Q 140.56 72.59 141.06 72.70
  C 144.20 73.41 150.44 76.26 146.75 80.12
  Z"
/>
<path fill="#fd6601" d="
  M 154.44 47.75
  Q 164.80 59.93 168.29 75.37
  C 168.85 77.88 169.08 81.10 169.67 83.94
  L 163.72 83.68
  C 161.87 72.55 157.64 61.72 149.89 53.30
  Q 149.63 53.01 149.65 52.25
  L 154.44 47.75
  Z"
/>
<circle fill="#fffff0" cx="173.91" cy="53.02" r="2.03"/>
<path fill="#fffff0" d="
  M 30.70 54.90
  A 0.48 0.48 0.0 0 1 30.25 54.38
  L 30.26 54.30
  A 2.26 1.24 -85.7 0 1 31.67 52.14
  L 31.93 52.16
  A 2.26 1.24 -85.7 0 1 32.99 54.51
  L 32.99 54.59
  A 0.48 0.48 0.0 0 1 32.47 55.03
  L 30.70 54.90
  Z"
/>
<path fill="#feb707" d="
  M 113.92 55.22
  Q 107.95 57.92 99.52 56.90
  Q 96.93 56.59 95.49 54.84
  C 97.56 50.80 111.99 50.70 113.92 55.22
  Z"
/>
<path fill="#c52a00" d="
  M 113.92 55.22
  Q 114.35 55.30 114.16 57.32
  C 108.74 61.05 100.70 60.78 95.13 57.57
  Q 94.71 56.36 95.49 54.84
  Q 96.93 56.59 99.52 56.90
  Q 107.95 57.92 113.92 55.22
  Z"
/>
<path fill="#fd7302" d="
  M 94.59 59.95
  L 103.26 68.32
  Q 103.59 68.65 103.27 68.98
  L 100.06 72.28
  A 0.40 0.39 48.2 0 1 99.47 72.24
  L 93.28 64.18
  L 94.59 59.95
  Z"
/>
<path fill="#f55201" d="
  M 114.53 59.99
  L 115.67 63.92
  L 109.28 72.12
  A 0.45 0.45 0.0 0 1 108.58 72.13
  L 105.86 68.93
  Q 105.54 68.56 105.89 68.22
  L 114.53 59.99
  Z"
/>
<circle fill="#fd7302" cx="33.40" cy="65.21" r="1.36"/>
<ellipse fill="#fd7302" cx="0.00" cy="0.00" transform="translate(175.79,65.23) rotate(123.7)" rx="1.27" ry="1.13"/>
<path fill="#fd6601" d="
  M 117.17 66.29
  L 121.68 68.13
  Q 121.40 75.27 121.60 82.37
  C 121.62 83.31 121.31 84.03 120.64 84.59
  A 0.71 0.71 0.0 0 0 121.04 85.84
  L 123.44 86.01
  Q 124.06 86.06 124.05 85.44
  L 123.99 69.43
  L 133.71 73.54
  L 133.45 83.02
  Q 133.44 83.46 133.21 83.84
  Q 132.87 84.43 132.81 85.09
  Q 132.74 85.85 133.50 85.83
  L 139.42 85.62
  A 0.88 0.86 -26.6 0 1 140.02 85.81
  L 141.56 87.04
  A 0.63 0.63 0.0 0 0 142.37 87.00
  L 143.42 86.02
  A 1.75 1.75 0.0 0 0 141.37 83.22
  Q 138.99 84.58 136.31 83.91
  Q 135.87 83.80 135.87 83.35
  L 135.82 74.57
  Q 142.07 76.73 146.75 80.12
  Q 149.68 87.35 150.62 94.54
  Q 150.67 94.95 150.26 94.95
  L 136.21 95.09
  A 0.38 0.38 0.0 0 1 135.82 94.71
  L 135.85 89.55
  A 0.56 0.55 -90.0 0 0 135.30 88.99
  L 134.01 88.98
  Q 133.51 88.98 133.50 89.49
  L 133.45 94.16
  Q 133.44 95.01 132.59 95.01
  L 125.06 95.01
  Q 123.87 95.01 123.87 93.81
  L 123.87 89.41
  Q 123.87 88.94 123.41 88.94
  L 122.02 88.94
  Q 121.49 88.94 121.50 89.48
  L 121.59 94.46
  Q 121.60 95.01 121.04 95.01
  L 105.96 95.01
  Q 105.30 95.01 105.30 94.35
  C 105.28 91.77 104.98 89.75 106.23 87.36
  C 109.82 80.47 114.27 73.45 117.17 66.29
  Z
  M 115.95 85.04
  A 1.96 1.96 0.0 0 0 113.99 83.08
  A 1.96 1.96 0.0 0 0 112.03 85.04
  A 1.96 1.96 0.0 0 0 113.99 87.00
  A 1.96 1.96 0.0 0 0 115.95 85.04
  Z
  M 128.86 85.00
  A 1.98 1.98 0.0 0 0 126.88 83.02
  A 1.98 1.98 0.0 0 0 124.90 85.00
  A 1.98 1.98 0.0 0 0 126.88 86.98
  A 1.98 1.98 0.0 0 0 128.86 85.00
  Z"
/>
<path fill="#fd7302" d="
  M 90.70 66.50
  Q 92.15 67.54 92.80 69.25
  A 0.27 0.26 -10.5 0 1 92.55 69.61
  L 88.06 69.55
  A 0.84 0.83 -69.4 0 0 87.43 69.84
  L 84.56 73.07
  A 1.02 1.02 0.0 0 0 84.30 73.75
  L 84.32 83.66
  A 0.36 0.35 0.0 0 1 83.96 84.01
  L 82.00 84.00
  Q 81.76 84.00 81.76 83.75
  L 81.75 72.65
  Q 81.75 72.06 82.13 71.62
  L 83.85 69.64
  L 90.70 66.50
  Z"
/>
<path fill="#fd7302" d="
  M 76.62 72.98
  Q 76.97 74.09 78.05 74.91
  A 0.89 0.87 -70.4 0 1 78.38 75.62
  L 78.28 77.82
  Q 78.25 78.39 77.68 78.39
  L 76.16 78.38
  A 0.43 0.43 0.0 0 1 75.76 77.82
  C 76.31 76.06 74.46 75.28 73.97 74.10
  L 76.62 72.98
  Z"
/>
<path fill="#fd7302" d="
  M 90.32 76.33
  L 90.48 83.67
  A 0.32 0.32 0.0 0 1 90.17 84.00
  L 88.29 84.02
  A 0.32 0.32 0.0 0 1 87.96 83.70
  L 87.98 75.66
  A 0.32 0.32 0.0 0 1 88.08 75.43
  L 90.49 73.16
  A 0.32 0.32 0.0 0 1 90.71 73.07
  L 95.06 73.08
  A 0.32 0.32 0.0 0 1 95.32 73.23
  L 96.79 75.51
  A 0.32 0.32 0.0 0 1 96.52 76.00
  L 90.64 76.00
  A 0.32 0.32 0.0 0 0 90.32 76.33
  Z"
/>
<circle fill="#fd7302" cx="104.47" cy="77.36" r="2.67"/>
<path fill="#96adc4" d="
  M 35.13 77.24
  L 34.66 82.49
  Q 33.45 82.68 32.68 82.50
  Q 32.79 79.84 31.01 78.66
  Q 32.63 77.40 35.13 77.24
  Z"
/>
<path fill="#96adc4" d="
  M 173.97 77.30
  Q 176.32 77.36 177.76 78.77
  Q 176.21 80.21 176.77 82.53
  Q 176.01 82.94 175.02 82.65
  Q 174.40 82.47 174.32 83.42
  L 173.97 77.30
  Z"
/>
<path fill="#fffff0" d="
  M 31.01 78.66
  Q 32.79 79.84 32.68 82.50
  Q 31.60 82.56 30.54 82.11
  Q 30.09 81.91 30.00 81.43
  Q 29.68 79.78 31.01 78.66
  Z"
/>
<path fill="#fffff0" d="
  M 177.76 78.77
  Q 179.67 80.00 179.17 81.42
  Q 178.99 81.94 178.45 82.09
  L 176.77 82.53
  Q 176.21 80.21 177.76 78.77
  Z"
/>
<path fill="#fd7302" d="
  M 64.00 79.32
  Q 67.42 80.39 71.27 79.97
  Q 71.81 79.91 72.18 80.30
  L 74.46 82.76
  A 0.92 0.91 62.8 0 0 75.31 83.04
  Q 77.60 82.57 78.73 84.72
  A 2.17 2.16 -26.6 0 1 77.74 87.69
  C 74.11 89.42 74.06 85.17 72.19 83.56
  C 70.29 81.92 66.93 82.47 64.55 82.50
  Q 64.02 82.50 64.01 83.03
  L 64.00 86.19
  A 0.45 0.44 -89.4 0 0 64.44 86.65
  L 69.27 86.62
  A 0.64 0.64 0.0 0 1 69.91 87.27
  L 69.90 88.74
  Q 69.90 89.38 69.26 89.38
  L 64.51 89.43
  Q 63.71 89.43 63.67 90.24
  L 63.62 91.47
  Q 63.59 92.10 64.22 92.10
  L 78.62 92.18
  Q 79.20 92.19 79.58 92.61
  L 83.24 96.67
  A 0.99 0.98 -21.8 0 0 84.02 97.00
  Q 86.19 96.88 86.78 99.08
  Q 86.92 99.63 86.63 100.12
  C 84.92 103.01 81.74 101.93 81.67 98.79
  Q 81.65 98.28 81.30 97.92
  L 78.83 95.44
  A 1.50 1.50 0.0 0 0 77.77 95.00
  L 58.50 95.01
  Q 57.97 95.01 58.05 94.48
  Q 59.12 87.81 61.78 81.69
  Q 62.04 81.10 62.15 80.47
  L 64.00 79.32
  Z"
/>
<path fill="#fd7302" d="
  M 104.39 148.44
  Q 103.46 152.30 104.01 156.87
  L 101.49 157.39
  Q 100.99 157.50 100.99 156.98
  L 101.00 90.28
  Q 101.00 89.67 100.58 89.21
  L 98.25 86.62
  A 1.02 1.01 -20.7 0 0 97.46 86.27
  C 91.88 86.30 95.33 79.21 98.30 81.68
  C 99.34 82.55 98.88 83.86 99.92 84.79
  Q 101.93 86.56 103.52 88.70
  Q 103.83 89.11 103.83 89.62
  Q 103.82 117.82 104.02 146.00
  Q 104.03 147.40 104.39 148.44
  Z"
/>
<rect fill="#fd7302" x="82.00" y="88.00" width="9.12" height="2.52" rx="0.38"/>
<path fill="#fd6601" d="
  M 79.26 115.01
  L 78.37 112.24
  L 88.75 112.16
  A 0.90 0.90 0.0 0 0 89.61 111.53
  Q 90.24 109.64 92.09 108.83
  A 0.87 0.86 77.8 0 0 92.61 108.02
  L 92.49 99.68
  A 1.01 0.99 -73.3 0 0 92.07 98.88
  C 89.69 97.20 88.83 93.81 91.33 92.11
  C 96.18 88.81 101.15 95.81 95.66 98.85
  A 1.02 1.01 -14.5 0 0 95.13 99.74
  L 95.11 108.47
  A 1.10 1.07 -70.1 0 0 95.48 109.29
  C 98.92 112.23 98.09 114.00 95.48 116.81
  Q 95.16 117.15 95.16 117.62
  L 95.12 138.84
  A 0.64 0.64 0.0 0 1 94.04 139.30
  L 93.37 138.65
  Q 92.55 137.87 92.54 136.73
  L 92.48 117.93
  Q 92.48 117.33 91.94 117.05
  Q 90.73 116.43 89.82 115.42
  Q 89.46 115.02 88.93 115.02
  L 79.26 115.01
  Z
  M 95.61 95.17
  A 1.75 1.75 0.0 0 0 93.86 93.42
  A 1.75 1.75 0.0 0 0 92.11 95.17
  A 1.75 1.75 0.0 0 0 93.86 96.92
  A 1.75 1.75 0.0 0 0 95.61 95.17
  Z
  M 95.30 112.99
  A 1.92 1.92 0.0 0 0 93.38 111.07
  A 1.92 1.92 0.0 0 0 91.46 112.99
  A 1.92 1.92 0.0 0 0 93.38 114.91
  A 1.92 1.92 0.0 0 0 95.30 112.99
  Z"
/>
<path fill="#f55201" d="
  M 132.36 108.88
  L 129.99 114.96
  L 116.20 115.04
  A 3.79 3.76 -66.6 0 0 113.65 116.06
  L 107.71 121.63
  A 0.28 0.23 -26.0 0 0 107.63 121.81
  L 107.70 127.97
  Q 107.70 128.06 107.76 127.99
  Q 111.63 123.20 116.31 119.25
  Q 116.70 118.92 117.21 118.92
  L 128.74 118.92
  L 127.96 122.10
  L 119.07 122.25
  Q 117.89 122.27 117.05 123.08
  Q 114.25 125.81 111.17 128.67
  Q 109.93 129.83 108.29 128.83
  Q 107.83 128.56 107.75 129.08
  Q 107.39 131.15 107.76 133.30
  L 107.65 135.71
  L 107.51 156.89
  Q 107.51 157.36 107.05 157.29
  L 104.01 156.87
  Q 103.46 152.30 104.39 148.44
  Q 105.26 145.77 105.25 142.75
  Q 105.24 120.85 105.30 98.95
  A 0.54 0.54 0.0 0 1 105.84 98.41
  L 121.30 98.45
  Q 121.46 98.45 121.46 98.61
  L 121.56 104.82
  A 0.25 0.25 0.0 0 1 121.31 105.08
  L 114.57 105.00
  Q 113.96 104.99 113.52 105.41
  L 108.23 110.38
  A 2.02 1.99 68.8 0 0 107.61 111.81
  L 107.55 115.96
  Q 107.54 116.84 108.17 116.23
  L 115.27 109.30
  A 1.71 1.71 0.0 0 1 116.47 108.81
  L 132.36 108.88
  Z
  M 108.1630 119.9900
  A 1.74 0.50 89.9 0 0 108.6600 118.2491
  A 1.74 0.50 89.9 0 0 108.1570 116.5100
  A 1.74 0.50 89.9 0 0 107.6600 118.2509
  A 1.74 0.50 89.9 0 0 108.1630 119.9900
  Z"
/>
<path fill="#f55201" d="
  M 141.62 98.40
  Q 140.51 99.46 138.50 99.16
  A 1.07 1.06 -64.8 0 0 137.56 99.50
  Q 136.54 100.66 137.73 100.96
  C 135.46 100.85 134.80 103.39 133.99 104.96
  L 124.10 105.02
  Q 123.82 105.02 123.83 104.75
  L 123.89 98.73
  Q 123.89 98.43 124.18 98.43
  L 141.62 98.40
  Z"
/>
<path fill="#591b0d" d="
  M 141.62 98.40
  Q 143.02 98.20 144.71 98.51
  Q 145.01 98.57 145.07 98.75
  Q 145.11 98.87 145.06 99.03
  A 0.35 0.34 2.6 0 1 144.79 99.27
  Q 142.72 99.64 141.22 100.96
  Q 139.47 101.28 137.73 100.96
  Q 136.54 100.66 137.56 99.50
  A 1.07 1.06 -64.8 0 1 138.50 99.16
  Q 140.51 99.46 141.62 98.40
  Z"
/>
<path fill="#fd7302" d="
  M 87.00 106.40
  L 87.04 108.04
  A 0.45 0.45 0.0 0 1 86.59 108.50
  L 80.49 108.50
  A 0.45 0.45 0.0 0 1 80.16 108.35
  L 72.12 99.23
  A 0.45 0.45 0.0 0 1 72.49 98.48
  L 74.31 98.62
  A 0.45 0.45 0.0 0 1 74.60 98.75
  L 81.37 105.80
  A 0.45 0.45 0.0 0 0 81.69 105.94
  L 86.55 105.96
  A 0.45 0.45 0.0 0 1 87.00 106.40
  Z"
/>
<path fill="#fffff0" d="
  M 78.37 112.24
  L 79.26 115.01
  Q 82.59 124.47 81.84 134.62
  Q 81.80 135.20 81.30 134.89
  C 70.43 128.11 64.87 118.91 61.38 106.75
  Q 61.16 105.98 60.37 106.03
  C 54.25 106.36 55.78 98.53 60.20 100.42
  C 63.26 101.73 68.63 101.11 72.01 101.07
  A 0.86 0.86 0.0 0 1 72.77 101.53
  L 78.37 112.24
  Z"
/>
<path fill="#fffff0" d="
  M 126.92 129.07
  L 126.91 125.90
  Q 127.92 123.76 127.96 122.10
  L 128.74 118.92
  L 129.99 114.96
  L 132.36 108.88
  L 133.99 104.96
  C 134.80 103.39 135.46 100.85 137.73 100.96
  Q 139.47 101.28 141.22 100.96
  L 147.21 101.11
  Q 147.72 101.12 148.09 100.78
  C 150.16 98.91 151.94 100.45 152.84 102.40
  Q 153.04 102.84 152.88 103.30
  Q 151.84 106.40 148.54 105.92
  Q 147.97 105.84 147.82 106.39
  C 144.48 118.74 138.48 128.40 127.42 135.39
  Q 126.94 135.69 126.94 135.13
  L 126.92 129.07
  Z"
/>
<circle fill="#fd7302" cx="40.57" cy="118.61" r="4.16"/>
<path fill="#fd6601" d="
  M 173.22 126.73
  Q 172.76 128.13 171.20 128.50
  Q 170.62 128.64 170.26 128.17
  L 169.19 126.80
  Q 168.85 126.37 168.31 126.52
  L 167.75 126.68
  Q 167.27 126.81 166.87 126.52
  Q 165.82 125.74 166.13 124.40
  Q 166.24 123.90 165.81 123.62
  L 164.50 122.79
  Q 163.98 122.46 163.94 121.85
  Q 163.82 120.33 165.23 119.74
  A 0.82 0.82 0.0 0 0 165.73 119.03
  Q 165.90 116.41 168.59 116.41
  A 0.97 0.95 22.2 0 0 169.27 116.13
  L 170.39 115.00
  Q 170.76 114.62 171.27 114.75
  Q 172.56 115.07 173.15 116.22
  Q 173.40 116.70 173.93 116.58
  Q 174.75 116.39 175.56 116.60
  Q 176.10 116.74 176.14 117.30
  L 176.25 119.01
  A 0.74 0.73 -82.3 0 0 176.74 119.66
  Q 178.87 120.41 178.02 122.56
  A 0.99 0.98 -85.8 0 1 177.34 123.15
  Q 175.85 123.51 176.22 125.18
  Q 176.33 125.69 176.02 126.11
  Q 175.20 127.23 173.89 126.47
  Q 173.39 126.18 173.22 126.73
  Z
  M 170.20 122.49
  Q 170.65 123.08 171.57 122.92
  Q 171.87 122.87 171.88 122.57
  Q 171.88 122.40 171.87 122.21
  Q 171.86 121.90 171.54 121.89
  Q 171.11 121.87 170.70 121.65
  L 171.35 120.88
  Q 171.67 120.51 171.29 120.20
  Q 170.90 119.89 170.55 120.29
  Q 169.87 121.08 170.20 122.49
  Z"
/>
<ellipse fill="#591b0d" cx="0.00" cy="0.00" transform="translate(108.16,118.25) rotate(89.9)" rx="1.74" ry="0.50"/>
<path fill="#f55201" d="
  M 87.16 125.53
  L 87.12 136.13
  A 1.01 1.00 -89.7 0 1 86.12 137.13
  L 85.86 137.13
  A 0.60 0.59 86.7 0 1 85.27 136.60
  Q 84.65 131.10 84.73 126.24
  Q 84.76 124.80 83.65 124.08
  Q 83.23 123.81 83.11 123.32
  C 81.77 117.92 89.21 117.83 88.91 122.81
  Q 88.89 123.25 88.59 123.57
  L 87.47 124.76
  Q 87.16 125.08 87.16 125.53
  Z"
/>
<path fill="#feb707" d="
  M 170.70 121.65
  Q 170.55 121.59 170.38 121.67
  Q 170.25 121.74 170.20 121.90
  Q 170.13 122.17 170.20 122.49
  Q 169.87 121.08 170.55 120.29
  Q 170.90 119.89 171.29 120.20
  Q 171.67 120.51 171.35 120.88
  L 170.70 121.65
  Z"
/>
<path fill="#fffff0" d="
  M 170.70 121.65
  Q 171.11 121.87 171.54 121.89
  Q 171.86 121.90 171.87 122.21
  Q 171.88 122.40 171.88 122.57
  Q 171.87 122.87 171.57 122.92
  Q 170.65 123.08 170.20 122.49
  Q 170.13 122.17 170.20 121.90
  Q 170.25 121.74 170.38 121.67
  Q 170.55 121.59 170.70 121.65
  Z"
/>
<path fill="#f55201" d="
  M 126.91 125.90
  L 126.92 129.07
  L 122.33 129.12
  Q 121.76 129.12 121.34 129.52
  L 114.87 135.76
  Q 114.49 136.12 113.96 136.11
  L 109.00 135.97
  L 108.84 133.31
  C 110.81 131.53 113.05 133.70 115.45 131.07
  Q 117.71 128.59 120.13 126.30
  Q 120.48 125.96 120.98 125.96
  L 126.91 125.90
  Z"
/>
<circle fill="#fd7302" cx="158.18" cy="131.94" r="3.58"/>
<path fill="#fd7302" d="
  M 47.27 128.54
  L 51.93 128.70
  Q 51.69 130.50 52.81 131.73
  L 48.50 131.91
  Q 45.25 130.72 42.73 132.96
  Q 39.91 135.47 35.57 140.15
  Q 35.25 140.50 35.25 140.98
  C 35.23 147.03 26.11 145.39 27.97 139.92
  Q 28.67 137.87 31.12 137.27
  Q 31.61 137.15 32.04 137.40
  L 32.83 137.85
  Q 33.29 138.11 33.67 137.75
  L 42.53 129.13
  Q 42.91 128.76 43.44 128.74
  L 47.27 128.54
  Z"
/>
<circle fill="#fe9203" cx="32.04" cy="130.80" r="1.50"/>
<path fill="#fd7302" d="
  M 123.08 133.04
  Q 123.94 135.27 122.31 136.02
  Q 121.65 132.47 123.08 133.04
  Z"
/>
<path fill="#591b0d" d="
  M 123.08 133.04
  Q 124.26 132.83 125.25 132.97
  Q 125.71 133.04 125.74 133.51
  Q 125.92 136.80 122.90 137.95
  Q 122.39 138.14 122.21 137.63
  Q 121.94 136.86 122.31 136.02
  Q 123.94 135.27 123.08 133.04
  Z"
/>
<path fill="#591b0d" d="
  M 107.76 133.30
  Q 107.99 133.58 108.84 133.31
  L 109.00 135.97
  Q 108.28 135.63 107.65 135.71
  L 107.76 133.30
  Z"
/>
<path fill="#591b0d" d="
  M 113.91 139.39
  L 118.40 134.86
  A 0.33 0.33 0.0 0 1 118.97 135.10
  L 118.83 138.32
  Q 118.80 139.12 118.15 139.60
  C 116.35 140.92 112.98 141.14 110.46 141.23
  Q 109.78 141.25 109.71 140.58
  L 109.68 140.27
  Q 109.64 139.83 110.08 139.82
  L 113.02 139.77
  Q 113.54 139.76 113.91 139.39
  Z"
/>
<path fill="#fd7302" d="
  M 172.85 137.70
  C 173.89 135.96 175.67 135.40 177.34 136.82
  C 181.28 140.14 175.78 144.58 173.33 141.93
  C 172.57 141.11 172.48 140.60 171.23 140.56
  C 165.67 140.37 158.47 139.89 157.23 146.99
  C 156.97 148.48 157.13 150.52 156.51 152.13
  C 154.54 157.26 147.90 156.18 142.19 155.90
  A 0.50 0.50 0.0 0 1 141.72 155.30
  L 141.80 154.94
  Q 141.99 154.05 142.90 154.04
  Q 146.34 153.99 149.72 153.98
  C 156.17 153.95 153.98 149.67 155.48 145.82
  C 158.64 137.71 164.46 138.46 172.03 138.19
  Q 172.58 138.17 172.85 137.70
  Z"
/>
<ellipse fill="#fffff0" cx="0.00" cy="0.00" transform="translate(45.92,139.05) rotate(86.5)" rx="1.92" ry="1.72"/>
<circle fill="#fffff0" cx="40.37" cy="143.51" r="1.37"/>
<path fill="#fd7302" d="
  M 35.40 155.37
  C 33.35 157.39 30.78 156.75 30.37 153.81
  A 2.50 2.50 0.0 0 1 32.25 151.03
  Q 34.28 150.52 35.58 152.07
  Q 35.92 152.48 36.45 152.55
  C 41.38 153.19 45.00 149.26 47.71 146.05
  Q 48.05 145.63 48.00 145.10
  C 47.91 144.29 48.00 143.66 48.70 143.16
  C 53.16 139.99 56.04 148.54 49.72 147.99
  A 1.11 1.11 0.0 0 0 48.83 148.31
  Q 46.98 150.12 45.16 151.91
  C 42.10 154.92 39.81 154.63 36.27 154.96
  Q 35.76 155.00 35.40 155.37
  Z"
/>
<ellipse fill="#fd7302" cx="0.00" cy="0.00" transform="translate(146.90,146.51) rotate(130.4)" rx="2.43" ry="2.25"/>
<ellipse fill="#fffff0" cx="0.00" cy="0.00" transform="translate(172.28,147.88) rotate(79.2)" rx="1.83" ry="1.64"/>
<path fill="#feb707" d="
  M 134.16 151.29
  Q 133.88 151.23 133.52 150.71
  L 136.44 149.20
  Q 137.00 148.90 136.99 149.54
  L 136.99 150.46
  Q 136.99 151.01 136.43 150.98
  Q 135.18 150.91 134.16 151.29
  Z"
/>
<path fill="#f55201" d="
  M 133.52 150.71
  Q 133.88 151.23 134.16 151.29
  Q 133.24 152.53 136.25 152.22
  Q 137.03 152.13 137.01 152.92
  L 137.01 153.20
  Q 136.99 153.96 136.23 153.96
  L 134.40 153.96
  Q 133.98 153.96 134.03 154.38
  Q 134.05 154.54 134.15 154.67
  Q 134.22 154.77 134.39 154.81
  Q 135.48 155.07 136.43 155.04
  A 0.48 0.47 -0.6 0 1 136.92 155.51
  L 136.93 155.97
  A 0.67 0.67 0.0 0 1 136.12 156.63
  Q 135.23 156.44 134.34 156.56
  A 0.40 0.40 0.0 0 0 134.00 156.97
  Q 134.00 157.12 134.00 157.26
  Q 134.01 157.62 134.36 157.69
  Q 135.31 157.88 136.27 157.75
  Q 136.60 157.70 136.73 158.01
  L 136.86 158.33
  Q 137.04 158.78 136.56 158.84
  L 134.26 159.15
  Q 134.04 159.18 134.07 159.40
  L 134.10 159.69
  Q 134.13 159.94 134.38 159.91
  Q 135.87 159.77 136.20 160.00
  Q 138.73 161.75 135.75 161.73
  L 134.42 161.72
  Q 133.97 161.71 133.95 162.16
  Q 133.94 162.35 134.03 162.50
  Q 134.10 162.63 134.28 162.69
  Q 135.27 163.04 136.33 163.03
  Q 136.75 163.03 136.75 163.45
  L 136.75 163.79
  Q 136.75 164.20 136.33 164.22
  Q 135.21 164.28 134.92 164.38
  Q 132.91 165.05 134.95 165.60
  Q 135.30 165.69 136.18 165.53
  Q 136.76 165.42 136.77 166.01
  L 136.78 166.49
  A 0.38 0.38 0.0 0 1 136.42 166.88
  Q 135.49 166.95 134.49 167.12
  Q 134.18 167.18 134.08 167.34
  Q 134.00 167.46 134.01 167.58
  Q 134.04 167.97 134.43 167.97
  L 136.29 168.00
  A 0.63 0.63 0.0 0 1 136.89 168.79
  L 136.78 169.20
  Q 136.69 169.57 136.31 169.54
  L 134.56 169.42
  A 0.53 0.52 0.5 0 0 134.00 169.97
  Q 134.01 170.14 134.02 170.31
  A 0.32 0.31 5.5 0 0 134.28 170.62
  Q 135.20 170.82 136.14 170.71
  Q 136.66 170.64 136.80 171.15
  L 136.91 171.53
  Q 137.01 171.88 136.65 171.93
  L 134.30 172.21
  Q 133.87 172.26 133.98 172.68
  Q 134.02 172.84 134.06 173.01
  Q 134.12 173.27 134.39 173.26
  L 136.34 173.22
  A 0.64 0.64 0.0 0 1 136.99 173.84
  L 137.00 174.29
  Q 137.01 174.84 136.47 174.88
  L 134.47 175.03
  Q 134.21 175.05 134.18 175.32
  L 134.16 175.57
  Q 134.14 175.86 134.43 175.89
  Q 135.35 175.98 136.20 176.04
  Q 136.59 176.07 136.72 176.24
  Q 136.84 176.39 136.81 176.59
  Q 136.77 176.95 136.41 177.00
  L 134.13 177.30
  Q 133.84 177.34 133.90 177.63
  L 133.98 178.02
  Q 134.03 178.26 134.27 178.25
  L 136.32 178.14
  A 0.64 0.64 0.0 0 1 136.99 178.82
  L 136.95 179.38
  Q 136.91 179.91 136.37 179.92
  L 134.25 179.93
  A 0.44 0.44 0.0 0 0 134.11 180.79
  Q 135.15 181.16 136.29 180.98
  Q 136.96 180.87 136.97 181.56
  L 136.98 182.01
  Q 136.99 182.50 136.49 182.50
  L 131.22 182.48
  Q 130.65 182.48 130.61 181.91
  Q 130.51 180.23 130.76 178.61
  Q 130.89 177.78 130.71 177.39
  Q 130.37 176.65 129.39 176.83
  A 0.74 0.73 -14.1 0 0 128.82 177.78
  Q 129.47 179.86 129.18 182.08
  Q 129.13 182.48 128.72 182.48
  L 122.60 182.51
  Q 122.06 182.51 122.04 181.97
  L 122.04 181.59
  Q 122.03 181.11 122.50 181.09
  Q 123.44 181.06 124.49 180.90
  Q 124.84 180.84 124.97 180.64
  Q 125.09 180.44 125.04 180.21
  Q 124.97 179.93 124.69 179.93
  L 122.48 179.93
  Q 122.03 179.92 122.05 179.48
  L 122.06 179.07
  Q 122.09 178.24 122.93 178.28
  L 124.00 178.34
  A 0.59 0.49 -36.8 0 0 124.25 177.28
  L 122.58 177.18
  A 0.35 0.35 0.0 0 1 122.28 176.98
  L 122.07 176.54
  Q 121.86 176.11 122.34 176.08
  Q 124.04 175.98 124.52 175.86
  Q 124.88 175.78 124.93 175.49
  Q 125.01 174.99 124.50 174.99
  L 122.75 175.02
  A 0.71 0.71 0.0 0 1 122.03 174.32
  L 122.02 173.94
  A 0.72 0.71 0.0 0 1 122.75 173.22
  L 124.52 173.25
  Q 125.13 173.26 125.01 172.67
  Q 124.98 172.51 124.88 172.38
  Q 124.78 172.23 124.58 172.19
  Q 123.53 171.95 122.60 172.02
  Q 122.02 172.07 122.07 171.48
  L 122.09 171.20
  Q 122.14 170.62 122.72 170.61
  L 124.74 170.58
  A 0.29 0.29 0.0 0 0 125.02 170.25
  L 124.96 169.85
  Q 124.93 169.64 124.71 169.60
  Q 123.78 169.46 122.85 169.63
  A 0.63 0.63 0.0 0 1 122.11 169.10
  L 122.04 168.54
  Q 121.96 168.02 122.49 168.04
  Q 123.99 168.09 124.63 167.90
  Q 125.01 167.79 124.97 167.47
  Q 124.92 167.03 124.48 167.02
  L 122.53 167.00
  Q 122.04 166.99 122.05 166.50
  L 122.06 166.14
  Q 122.08 165.48 122.75 165.49
  L 124.52 165.54
  Q 125.02 165.55 125.01 165.05
  L 124.99 164.70
  Q 124.98 164.23 124.50 164.23
  L 122.57 164.21
  A 0.44 0.43 -7.5 0 1 122.17 163.91
  L 122.05 163.53
  Q 121.88 162.96 122.47 162.97
  L 124.51 162.97
  Q 125.00 162.97 125.00 162.49
  L 125.01 162.20
  Q 125.01 161.71 124.52 161.72
  L 122.74 161.76
  Q 121.96 161.77 122.01 160.99
  L 122.05 160.49
  A 0.44 0.44 0.0 0 1 122.52 160.08
  L 124.73 160.19
  Q 124.93 160.20 124.96 160.01
  L 125.02 159.53
  Q 125.09 158.98 124.53 158.98
  L 122.71 158.99
  A 0.59 0.59 0.0 0 1 122.14 158.23
  C 123.05 155.08 126.17 154.65 128.65 153.25
  Q 129.17 152.95 129.21 153.56
  Q 129.31 155.10 128.80 156.54
  A 0.91 0.90 -63.5 0 0 129.15 157.60
  Q 129.97 158.15 130.67 157.54
  A 1.00 0.98 62.3 0 0 130.97 156.54
  Q 130.49 154.81 130.66 152.99
  Q 130.71 152.41 131.20 152.11
  L 133.52 150.71
  Z
  M 125.1081 157.0746
  A 1.16 0.69 -8.2 0 0 123.8616 156.5571
  A 1.16 0.69 -8.2 0 0 122.8119 157.4054
  A 1.16 0.69 -8.2 0 0 124.0584 157.9229
  A 1.16 0.69 -8.2 0 0 125.1081 157.0746
  Z
  M 130.7245 161.8485
  A 0.57 0.57 0.0 0 0 130.1535 161.2794
  L 129.5135 161.2806
  A 0.57 0.57 0.0 0 0 128.9445 161.8516
  L 128.9555 168.1915
  A 0.57 0.57 0.0 0 0 129.5265 168.7606
  L 130.1665 168.7594
  A 0.57 0.57 0.0 0 0 130.7355 168.1884
  L 130.7245 161.8485
  Z
  M 130.7476 173.4337
  A 1.13 0.94 31.1 0 0 130.2655 172.0451
  A 1.13 0.94 31.1 0 0 128.8124 172.2663
  A 1.13 0.94 31.1 0 0 129.2945 173.6549
  A 1.13 0.94 31.1 0 0 130.7476 173.4337
  Z"
/>
<path fill="#fd7302" d="
  M 163.12 160.99
  Q 162.63 159.66 161.12 159.16
  C 161.17 156.71 160.15 154.58 162.41 152.66
  C 169.05 147.00 175.04 158.56 167.60 160.88
  C 166.19 161.31 164.64 160.95 163.12 160.99
  Z
  M 168.65 156.25
  A 2.80 2.80 0.0 0 0 165.85 153.45
  A 2.80 2.80 0.0 0 0 163.05 156.25
  A 2.80 2.80 0.0 0 0 165.85 159.05
  A 2.80 2.80 0.0 0 0 168.65 156.25
  Z"
/>
<path fill="#f55201" d="
  M 40.86 167.51
  C 43.92 164.72 46.62 161.47 49.60 158.75
  C 51.27 157.22 52.80 155.41 54.80 154.50
  Q 58.66 152.72 62.97 153.13
  C 64.99 153.33 66.09 154.51 67.45 155.84
  Q 67.95 156.33 67.25 156.36
  Q 63.46 156.52 59.71 156.51
  C 56.41 156.51 54.88 157.55 52.76 159.78
  Q 50.13 162.55 42.47 170.15
  Q 42.11 170.50 41.99 170.99
  C 41.40 173.56 39.18 175.32 36.53 174.34
  C 31.41 172.44 34.51 164.56 40.10 167.60
  Q 40.51 167.83 40.86 167.51
  Z"
/>
<ellipse fill="#fffff0" cx="0.00" cy="0.00" transform="translate(39.94,160.51) rotate(92.4)" rx="1.51" ry="1.22"/>
<path fill="#fffff0" d="
  M 161.12 159.16
  Q 162.63 159.66 163.12 160.99
  L 158.45 163.26
  Q 157.97 163.49 158.39 163.82
  C 159.58 164.78 161.73 165.04 162.28 166.00
  Q 161.76 166.91 160.75 167.48
  C 158.25 166.76 156.30 165.99 153.69 165.99
  Q 148.14 165.98 142.61 166.08
  Q 142.23 166.09 142.34 165.73
  Q 142.38 165.59 142.51 165.46
  Q 142.61 165.38 142.77 165.33
  Q 145.33 164.64 147.86 163.84
  Q 148.39 163.68 147.94 163.35
  Q 145.56 161.65 142.55 161.87
  Q 142.36 161.89 142.36 161.69
  L 142.36 161.39
  Q 142.36 160.92 142.83 160.91
  Q 149.15 160.74 155.50 160.96
  C 157.68 161.04 159.16 159.95 161.12 159.16
  Z
  M 155.03 163.23
  A 1.11 1.11 0.0 0 0 153.92 162.12
  A 1.11 1.11 0.0 0 0 152.81 163.23
  A 1.11 1.11 0.0 0 0 153.92 164.34
  A 1.11 1.11 0.0 0 0 155.03 163.23
  Z"
/>
<ellipse fill="#fd7302" cx="0.00" cy="0.00" transform="translate(64.79,161.46) rotate(96.4)" rx="1.49" ry="1.18"/>
<path fill="#fd6601" d="
  M 87.26 169.19
  Q 88.64 171.45 87.50 173.75
  A 0.75 0.73 -57.1 0 0 87.68 174.65
  L 90.28 176.86
  Q 91.06 177.52 90.36 178.26
  L 86.59 182.28
  Q 85.93 182.99 85.28 182.28
  L 82.45 179.19
  A 0.72 0.72 0.0 0 0 81.29 179.32
  Q 80.01 181.56 78.02 183.20
  Q 77.28 183.81 76.62 183.12
  L 73.85 180.19
  Q 73.26 179.56 73.85 178.92
  L 75.81 176.78
  A 0.60 0.60 0.0 0 0 75.78 175.93
  L 74.06 174.34
  Q 73.69 173.99 73.18 173.99
  L 69.55 174.00
  Q 69.13 174.01 69.08 173.59
  Q 68.73 170.41 69.16 169.22
  C 72.28 160.61 79.10 159.77 87.16 161.43
  A 0.93 0.91 87.1 0 1 87.85 162.07
  L 89.34 167.14
  A 0.56 0.55 -13.8 0 1 88.91 167.84
  Q 88.12 168.00 87.45 168.41
  Q 86.97 168.71 87.26 169.19
  Z
  M 85.00 171.86
  A 4.07 4.07 0.0 0 0 80.93 167.79
  A 4.07 4.07 0.0 0 0 76.86 171.86
  A 4.07 4.07 0.0 0 0 80.93 175.93
  A 4.07 4.07 0.0 0 0 85.00 171.86
  Z"
/>
<path fill="#f55201" d="
  M 160.75 167.48
  Q 161.76 166.91 162.28 166.00
  Q 164.93 163.67 168.10 165.21
  C 174.20 168.18 169.81 176.46 164.48 174.55
  Q 160.33 173.06 160.75 167.48
  Z
  M 168.63 169.60
  A 2.77 2.77 0.0 0 0 165.86 166.83
  A 2.77 2.77 0.0 0 0 163.09 169.60
  A 2.77 2.77 0.0 0 0 165.86 172.37
  A 2.77 2.77 0.0 0 0 168.63 169.60
  Z"
/>
<path fill="#f55201" d="
  M 54.53 177.77
  C 56.49 181.72 50.41 184.50 48.58 180.65
  C 47.73 178.86 48.46 177.32 49.98 176.27
  A 1.42 1.38 29.0 0 1 50.90 176.02
  Q 52.31 176.12 53.28 175.03
  Q 55.88 172.12 58.51 169.24
  A 1.41 1.38 -23.0 0 0 58.88 168.35
  C 58.97 166.31 59.97 164.50 62.31 165.09
  A 2.59 2.58 4.6 0 1 64.26 167.37
  Q 64.59 170.89 60.91 170.79
  Q 60.34 170.77 59.95 171.19
  L 54.65 176.92
  Q 54.30 177.30 54.53 177.77
  Z"
/>
<circle fill="#fffff0" cx="53.90" cy="169.22" r="1.27"/>
<path fill="#f55201" d="
  M 100.31 168.21
  Q 101.80 169.00 103.21 169.22
  Q 103.72 169.30 103.72 169.82
  L 103.62 183.74
  L 100.31 168.21
  Z"
/>
<path fill="#c52a00" d="
  M 108.51 168.47
  L 105.54 182.57
  L 105.40 169.89
  Q 105.40 169.37 105.89 169.22
  L 108.51 168.47
  Z"
/>
<path fill="#f55201" d="
  M 157.83 175.72
  C 162.83 177.97 158.81 185.62 154.05 181.32
  A 2.71 2.71 0.0 0 1 153.54 177.94
  L 154.91 175.63
  Q 155.13 175.26 155.04 174.84
  C 154.03 170.30 145.88 171.71 142.41 171.76
  Q 141.65 171.77 141.75 171.02
  L 141.87 170.07
  Q 141.96 169.39 142.65 169.38
  C 147.88 169.29 155.85 168.00 157.26 175.00
  Q 157.37 175.51 157.83 175.72
  Z"
/>
<circle fill="#fd6601" cx="60.57" cy="178.00" r="1.41"/>
<circle fill="#fd7302" cx="147.71" cy="177.99" r="1.39"/>
</svg>
